<mxfile>
    <diagram id="M868R1S0lZw8MV3iLUsf" name="Страница 1">
        <mxGraphModel dx="878" dy="560" grid="1" gridSize="10" guides="1" tooltips="1" connect="1" arrows="1" fold="1" page="1" pageScale="1" pageWidth="827" pageHeight="1169" math="0" shadow="0">
            <root>
                <mxCell id="0"/>
                <mxCell id="1" parent="0"/>
                <mxCell id="Ws1g7o8pyX_1v5lsGwGY-1" value="&lt;b&gt;Client&lt;/b&gt;" style="html=1;" parent="1" vertex="1">
                    <mxGeometry x="359" y="90" width="110" height="50" as="geometry"/>
                </mxCell>
                <mxCell id="Ws1g7o8pyX_1v5lsGwGY-2" value="Interface Premises" style="swimlane;fontStyle=1;childLayout=stackLayout;horizontal=1;startSize=26;fillColor=none;horizontalStack=0;resizeParent=1;resizeParentMax=0;resizeLast=0;collapsible=1;marginBottom=0;" parent="1" vertex="1">
                    <mxGeometry x="281" y="180" width="266" height="52" as="geometry"/>
                </mxCell>
                <mxCell id="Ws1g7o8pyX_1v5lsGwGY-3" value="+ getArea(width: double, length: double): double" style="text;strokeColor=none;fillColor=none;align=left;verticalAlign=top;spacingLeft=4;spacingRight=4;overflow=hidden;rotatable=0;points=[[0,0.5],[1,0.5]];portConstraint=eastwest;" parent="Ws1g7o8pyX_1v5lsGwGY-2" vertex="1">
                    <mxGeometry y="26" width="266" height="26" as="geometry"/>
                </mxCell>
                <mxCell id="Ws1g7o8pyX_1v5lsGwGY-28" value="" style="endArrow=block;dashed=1;endFill=0;endSize=12;html=1;" parent="Ws1g7o8pyX_1v5lsGwGY-2" edge="1">
                    <mxGeometry width="160" relative="1" as="geometry">
                        <mxPoint x="133" y="80.5" as="sourcePoint"/>
                        <mxPoint x="133" y="51" as="targetPoint"/>
                    </mxGeometry>
                </mxCell>
                <mxCell id="Ws1g7o8pyX_1v5lsGwGY-6" value="" style="endArrow=open;endFill=1;endSize=12;html=1;entryX=0.5;entryY=1;entryDx=0;entryDy=0;" parent="1" source="Ws1g7o8pyX_1v5lsGwGY-2" target="Ws1g7o8pyX_1v5lsGwGY-1" edge="1">
                    <mxGeometry width="160" relative="1" as="geometry">
                        <mxPoint x="330" y="160" as="sourcePoint"/>
                        <mxPoint x="490" y="160" as="targetPoint"/>
                    </mxGeometry>
                </mxCell>
                <mxCell id="Ws1g7o8pyX_1v5lsGwGY-19" value="Room" style="swimlane;fontStyle=1;align=center;verticalAlign=top;childLayout=stackLayout;horizontal=1;startSize=26;horizontalStack=0;resizeParent=1;resizeParentMax=0;resizeLast=0;collapsible=1;marginBottom=0;" parent="1" vertex="1">
                    <mxGeometry x="20" y="290" width="260" height="170" as="geometry"/>
                </mxCell>
                <mxCell id="Ws1g7o8pyX_1v5lsGwGY-20" value="- width: double&#10;- length: double" style="text;strokeColor=none;fillColor=none;align=left;verticalAlign=top;spacingLeft=4;spacingRight=4;overflow=hidden;rotatable=0;points=[[0,0.5],[1,0.5]];portConstraint=eastwest;" parent="Ws1g7o8pyX_1v5lsGwGY-19" vertex="1">
                    <mxGeometry y="26" width="260" height="34" as="geometry"/>
                </mxCell>
                <mxCell id="Ws1g7o8pyX_1v5lsGwGY-21" value="" style="line;strokeWidth=1;fillColor=none;align=left;verticalAlign=middle;spacingTop=-1;spacingLeft=3;spacingRight=3;rotatable=0;labelPosition=right;points=[];portConstraint=eastwest;" parent="Ws1g7o8pyX_1v5lsGwGY-19" vertex="1">
                    <mxGeometry y="60" width="260" height="8" as="geometry"/>
                </mxCell>
                <mxCell id="Ws1g7o8pyX_1v5lsGwGY-22" value="+get_width(): double&#10;+set_width(value double)&#10;+get_lenght(): double&#10;+set_lenght(value double)&#10;+ Room(width: double, length: double): Room&#10;+ getArea(): double" style="text;strokeColor=none;fillColor=none;align=left;verticalAlign=top;spacingLeft=4;spacingRight=4;overflow=hidden;rotatable=0;points=[[0,0.5],[1,0.5]];portConstraint=eastwest;" parent="Ws1g7o8pyX_1v5lsGwGY-19" vertex="1">
                    <mxGeometry y="68" width="260" height="102" as="geometry"/>
                </mxCell>
                <mxCell id="Ws1g7o8pyX_1v5lsGwGY-23" value="CompoundPremises" style="swimlane;fontStyle=1;align=center;verticalAlign=top;childLayout=stackLayout;horizontal=1;startSize=26;horizontalStack=0;resizeParent=1;resizeParentMax=0;resizeLast=0;collapsible=1;marginBottom=0;" parent="1" vertex="1">
                    <mxGeometry x="590" y="450" width="220" height="120" as="geometry"/>
                </mxCell>
                <mxCell id="Ws1g7o8pyX_1v5lsGwGY-24" value="- listPremises: List&lt;Premises&gt;" style="text;strokeColor=none;fillColor=none;align=left;verticalAlign=top;spacingLeft=4;spacingRight=4;overflow=hidden;rotatable=0;points=[[0,0.5],[1,0.5]];portConstraint=eastwest;" parent="Ws1g7o8pyX_1v5lsGwGY-23" vertex="1">
                    <mxGeometry y="26" width="220" height="26" as="geometry"/>
                </mxCell>
                <mxCell id="Ws1g7o8pyX_1v5lsGwGY-25" value="" style="line;strokeWidth=1;fillColor=none;align=left;verticalAlign=middle;spacingTop=-1;spacingLeft=3;spacingRight=3;rotatable=0;labelPosition=right;points=[];portConstraint=eastwest;" parent="Ws1g7o8pyX_1v5lsGwGY-23" vertex="1">
                    <mxGeometry y="52" width="220" height="8" as="geometry"/>
                </mxCell>
                <mxCell id="Ws1g7o8pyX_1v5lsGwGY-26" value="+ add(element: Premises)&#10;+ delete(index: int)&#10;+getArea(): double" style="text;strokeColor=none;fillColor=none;align=left;verticalAlign=top;spacingLeft=4;spacingRight=4;overflow=hidden;rotatable=0;points=[[0,0.5],[1,0.5]];portConstraint=eastwest;" parent="Ws1g7o8pyX_1v5lsGwGY-23" vertex="1">
                    <mxGeometry y="60" width="220" height="60" as="geometry"/>
                </mxCell>
                <mxCell id="Ws1g7o8pyX_1v5lsGwGY-27" value="" style="endArrow=open;html=1;endSize=12;startArrow=diamondThin;startSize=14;startFill=0;edgeStyle=orthogonalEdgeStyle;align=left;verticalAlign=bottom;entryX=1.011;entryY=0.154;entryDx=0;entryDy=0;entryPerimeter=0;rounded=0;endFill=0;" parent="1" edge="1">
                    <mxGeometry x="-0.7896" relative="1" as="geometry">
                        <mxPoint x="757" y="450" as="sourcePoint"/>
                        <mxPoint x="546.9259999999999" y="206.00400000000002" as="targetPoint"/>
                        <Array as="points">
                            <mxPoint x="757" y="206"/>
                        </Array>
                        <mxPoint as="offset"/>
                    </mxGeometry>
                </mxCell>
                <mxCell id="Ws1g7o8pyX_1v5lsGwGY-29" value="" style="endArrow=none;html=1;edgeStyle=orthogonalEdgeStyle;dashed=1;" parent="1" edge="1">
                    <mxGeometry relative="1" as="geometry">
                        <mxPoint x="130" y="260" as="sourcePoint"/>
                        <mxPoint x="730" y="260" as="targetPoint"/>
                    </mxGeometry>
                </mxCell>
                <mxCell id="Ws1g7o8pyX_1v5lsGwGY-32" value="" style="endArrow=none;html=1;edgeStyle=orthogonalEdgeStyle;dashed=1;" parent="1" edge="1">
                    <mxGeometry relative="1" as="geometry">
                        <mxPoint x="131.5" y="290" as="sourcePoint"/>
                        <mxPoint x="131.5" y="260" as="targetPoint"/>
                        <Array as="points">
                            <mxPoint x="131.5" y="280"/>
                            <mxPoint x="131.5" y="280"/>
                        </Array>
                    </mxGeometry>
                </mxCell>
                <mxCell id="Ws1g7o8pyX_1v5lsGwGY-35" value="" style="endArrow=none;html=1;edgeStyle=orthogonalEdgeStyle;dashed=1;" parent="1" source="Ws1g7o8pyX_1v5lsGwGY-23" edge="1">
                    <mxGeometry relative="1" as="geometry">
                        <mxPoint x="730" y="440" as="sourcePoint"/>
                        <mxPoint x="730" y="260" as="targetPoint"/>
                        <Array as="points">
                            <mxPoint x="730" y="410"/>
                            <mxPoint x="730" y="410"/>
                        </Array>
                    </mxGeometry>
                </mxCell>
                <mxCell id="Ws1g7o8pyX_1v5lsGwGY-37" value="Flat" style="swimlane;fontStyle=1;align=center;verticalAlign=top;childLayout=stackLayout;horizontal=1;startSize=26;horizontalStack=0;resizeParent=1;resizeParentMax=0;resizeLast=0;collapsible=1;marginBottom=0;" parent="1" vertex="1">
                    <mxGeometry x="230" y="500" width="180" height="110" as="geometry"/>
                </mxCell>
                <mxCell id="Ws1g7o8pyX_1v5lsGwGY-38" value="- rooms: List&lt;Room&gt;" style="text;strokeColor=none;fillColor=none;align=left;verticalAlign=top;spacingLeft=4;spacingRight=4;overflow=hidden;rotatable=0;points=[[0,0.5],[1,0.5]];portConstraint=eastwest;" parent="Ws1g7o8pyX_1v5lsGwGY-37" vertex="1">
                    <mxGeometry y="26" width="180" height="34" as="geometry"/>
                </mxCell>
                <mxCell id="Ws1g7o8pyX_1v5lsGwGY-39" value="" style="line;strokeWidth=1;fillColor=none;align=left;verticalAlign=middle;spacingTop=-1;spacingLeft=3;spacingRight=3;rotatable=0;labelPosition=right;points=[];portConstraint=eastwest;" parent="Ws1g7o8pyX_1v5lsGwGY-37" vertex="1">
                    <mxGeometry y="60" width="180" height="8" as="geometry"/>
                </mxCell>
                <mxCell id="Ws1g7o8pyX_1v5lsGwGY-40" value="+ Flat(List&lt;Room&gt;): Flat&#10;+ getArea(): double" style="text;strokeColor=none;fillColor=none;align=left;verticalAlign=top;spacingLeft=4;spacingRight=4;overflow=hidden;rotatable=0;points=[[0,0.5],[1,0.5]];portConstraint=eastwest;" parent="Ws1g7o8pyX_1v5lsGwGY-37" vertex="1">
                    <mxGeometry y="68" width="180" height="42" as="geometry"/>
                </mxCell>
                <mxCell id="Ws1g7o8pyX_1v5lsGwGY-41" value="Home" style="swimlane;fontStyle=1;align=center;verticalAlign=top;childLayout=stackLayout;horizontal=1;startSize=26;horizontalStack=0;resizeParent=1;resizeParentMax=0;resizeLast=0;collapsible=1;marginBottom=0;" parent="1" vertex="1">
                    <mxGeometry x="380" y="290" width="200" height="110" as="geometry"/>
                </mxCell>
                <mxCell id="Ws1g7o8pyX_1v5lsGwGY-42" value="- flats: List&lt;Flat&gt;" style="text;strokeColor=none;fillColor=none;align=left;verticalAlign=top;spacingLeft=4;spacingRight=4;overflow=hidden;rotatable=0;points=[[0,0.5],[1,0.5]];portConstraint=eastwest;" parent="Ws1g7o8pyX_1v5lsGwGY-41" vertex="1">
                    <mxGeometry y="26" width="200" height="34" as="geometry"/>
                </mxCell>
                <mxCell id="Ws1g7o8pyX_1v5lsGwGY-43" value="" style="line;strokeWidth=1;fillColor=none;align=left;verticalAlign=middle;spacingTop=-1;spacingLeft=3;spacingRight=3;rotatable=0;labelPosition=right;points=[];portConstraint=eastwest;" parent="Ws1g7o8pyX_1v5lsGwGY-41" vertex="1">
                    <mxGeometry y="60" width="200" height="8" as="geometry"/>
                </mxCell>
                <mxCell id="Ws1g7o8pyX_1v5lsGwGY-44" value="+ Home(flats: List&lt;Flat&gt;): Home&#10;+ getArea(): double" style="text;strokeColor=none;fillColor=none;align=left;verticalAlign=top;spacingLeft=4;spacingRight=4;overflow=hidden;rotatable=0;points=[[0,0.5],[1,0.5]];portConstraint=eastwest;" parent="Ws1g7o8pyX_1v5lsGwGY-41" vertex="1">
                    <mxGeometry y="68" width="200" height="42" as="geometry"/>
                </mxCell>
                <mxCell id="Ws1g7o8pyX_1v5lsGwGY-47" value="" style="endArrow=none;html=1;edgeStyle=orthogonalEdgeStyle;dashed=1;exitX=0.5;exitY=0;exitDx=0;exitDy=0;" parent="1" source="Ws1g7o8pyX_1v5lsGwGY-37" edge="1">
                    <mxGeometry relative="1" as="geometry">
                        <mxPoint x="323" y="460" as="sourcePoint"/>
                        <mxPoint x="323" y="260" as="targetPoint"/>
                        <Array as="points">
                            <mxPoint x="323" y="500"/>
                        </Array>
                    </mxGeometry>
                </mxCell>
                <mxCell id="Ws1g7o8pyX_1v5lsGwGY-48" value="" style="endArrow=none;html=1;edgeStyle=orthogonalEdgeStyle;dashed=1;" parent="1" edge="1">
                    <mxGeometry relative="1" as="geometry">
                        <mxPoint x="479.5" y="290" as="sourcePoint"/>
                        <mxPoint x="479.5" y="260" as="targetPoint"/>
                        <Array as="points">
                            <mxPoint x="479.5" y="280"/>
                            <mxPoint x="479.5" y="280"/>
                        </Array>
                    </mxGeometry>
                </mxCell>
                <mxCell id="Ws1g7o8pyX_1v5lsGwGY-49" value="" style="endArrow=open;html=1;endSize=12;startArrow=diamondThin;startSize=14;startFill=0;align=left;verticalAlign=bottom;edgeStyle=orthogonalEdgeStyle;rounded=0;entryX=1.004;entryY=-0.095;entryDx=0;entryDy=0;entryPerimeter=0;endFill=0;" parent="1" target="Ws1g7o8pyX_1v5lsGwGY-40" edge="1">
                    <mxGeometry x="-1" y="-48" relative="1" as="geometry">
                        <mxPoint x="532" y="400" as="sourcePoint"/>
                        <mxPoint x="470" y="524" as="targetPoint"/>
                        <Array as="points">
                            <mxPoint x="532" y="564"/>
                        </Array>
                        <mxPoint x="-30" y="-11" as="offset"/>
                    </mxGeometry>
                </mxCell>
                <mxCell id="Ws1g7o8pyX_1v5lsGwGY-50" value="" style="endArrow=open;html=1;endSize=12;startArrow=diamondThin;startSize=14;startFill=0;align=left;verticalAlign=bottom;rounded=0;edgeStyle=orthogonalEdgeStyle;exitX=0;exitY=0.625;exitDx=0;exitDy=0;exitPerimeter=0;endFill=0;" parent="1" source="Ws1g7o8pyX_1v5lsGwGY-39" edge="1">
                    <mxGeometry x="-1" y="-48" relative="1" as="geometry">
                        <mxPoint x="160" y="525" as="sourcePoint"/>
                        <mxPoint x="127" y="460" as="targetPoint"/>
                        <Array as="points">
                            <mxPoint x="127" y="565"/>
                        </Array>
                        <mxPoint x="-30" y="-11" as="offset"/>
                    </mxGeometry>
                </mxCell>
            </root>
        </mxGraphModel>
    </diagram>
</mxfile>